# xmcd CD database file
# Copyright (C) 1993-1998 Ti Kan
#
# Track frame offsets:
#	150
#	28262
#	45762
#	71647
#	93850
#	129067
#	152082
#	176312
#	198575
#	229382
#	262352
#
# Disc length: 4323 seconds
#
# Revision: 1
# Processed by: cddbd v1.4b41PL1 Copyright (c) Steve Scherf et al.
# Submitted via: CDValet v3.31 - Copyright (c) 1997 Greg Leichner
#
DISCID=8f10e10b
DTITLE=John Lee Hooker - The Father Of The Blues "Live"
DYEAR=1900
DGENRE=
TTITLE0=Hey, Hey
TTITLE1=I Want You To Roll Me
TTITLE2=Little Girl
TTITLE3=You Know It Ain't Right
TTITLE4=When My First Wife Left Me
TTITLE5=One Room Country Shack
TTITLE6=Sugar Mama
TTITLE7=Louise
TTITLE8=Tupelo
TTITLE9=Rock Steady
TTITLE10=Boogie On
EXTD=Tomato Records Cat. # 2696022
EXTT0=
EXTT1=
EXTT2=
EXTT3=
EXTT4=
EXTT5=
EXTT6=
EXTT7=
EXTT8=
EXTT9=
EXTT10=
PLAYORDER=
